<svg class="icon" height="512" viewBox="0 0 1024 1024" xmlns="http://www.w3.org/2000/svg"><path d="M856.211 384.085c-17.288-6.607-36.207-12.818-56.284-18.476 5.144-20.225 9.227-39.72 12.143-57.982 16.53-103.437-1.68-176.173-51.27-204.803-14.472-8.357-31.064-12.596-49.304-12.596-43.676 0-96.822 24.413-153.69 70.6-14.363 11.664-29.204 24.943-44.141 39.501-14.955-14.571-29.796-27.855-44.142-39.506-56.872-46.182-110.022-70.595-153.694-70.595-18.24 0-34.831 4.24-49.312 12.596-49.59 28.63-67.796 101.366-51.261 204.799 2.916 18.262 6.998 37.76 12.138 57.986-20.081 5.658-39.005 11.873-56.293 18.48-97.84 37.404-151.727 89.536-151.727 146.8 0 57.26 53.887 109.396 151.732 146.8 17.278 6.607 36.207 12.818 56.288 18.48-5.135 20.195-9.218 39.689-12.138 57.978-16.54 103.441 1.667 176.173 51.261 204.807 14.472 8.357 31.063 12.592 49.304 12.592 43.675 0 96.822-24.408 153.694-70.595 14.358-11.66 29.2-24.943 44.15-39.51 14.937 14.558 29.778 27.837 44.146 39.505 56.867 46.183 110.013 70.6 153.694 70.6 18.24 0 34.827-4.24 49.303-12.596 49.59-28.63 67.796-101.366 51.266-204.803-2.92-18.285-7.003-37.787-12.139-57.982 20.056-5.654 38.98-11.865 56.28-18.476 97.845-37.404 151.731-89.536 151.731-146.8-.004-57.268-53.89-109.405-151.735-146.804zm-144.99-254.09c11.369 0 21.366 2.442 29.705 7.256 41.16 23.764 49.099 107.416 20.84 218.609-41.888-9.614-87.248-16.7-134.888-21.07-27.598-39.07-56.415-74.812-85.69-106.288 64.28-62.63 126.166-98.506 170.034-98.506zM339.394 631.494a1274.207 1274.207 0 0 0 32.172 52.681c-33.321-3.995-65.337-9.44-95.28-16.212 9.1-29.305 20.39-59.754 33.6-90.62a1270.299 1270.299 0 0 0 29.508 54.151zm-63.105-237.685c29.953-6.772 61.969-12.221 95.277-16.208a1272.114 1272.114 0 0 0-32.176 52.676 1271.57 1271.57 0 0 0-29.505 54.152c-13.196-30.854-24.486-61.298-33.596-90.62zm54.766 137.068a1248.502 1248.502 0 0 1 42.77-80.727 1248.946 1248.946 0 0 1 48.555-77.441 1251.362 1251.362 0 0 1 91.281-3.295c30.81 0 61.516 1.11 91.29 3.3a1247.532 1247.532 0 0 1 48.55 77.436 1249.651 1249.651 0 0 1 42.776 80.736 1247.727 1247.727 0 0 1-42.775 80.74 1247.414 1247.414 0 0 1-48.555 77.441c-29.77 2.19-60.475 3.295-91.286 3.295-30.805 0-61.507-1.106-91.277-3.295a1250.034 1250.034 0 0 1-48.554-77.441 1247.423 1247.423 0 0 1-42.775-80.749zm356.87 100.617a1263.048 1263.048 0 0 0 29.513-54.156c13.21 30.871 24.503 61.325 33.604 90.625-29.944 6.772-61.96 12.217-95.286 16.212a1272.475 1272.475 0 0 0 32.169-52.68zm.004-201.221A1271.97 1271.97 0 0 0 655.76 377.6c33.313 3.991 65.328 9.44 95.281 16.212-9.114 29.326-20.404 59.775-33.604 90.62a1268.884 1268.884 0 0 0-29.51-54.16zm-112.604-99.09a1271.565 1271.565 0 0 0-61.664-1.523c-20.225 0-40.942.513-61.655 1.523 20.13-26.871 40.847-51.867 61.66-74.381 20.817 22.528 41.534 47.519 61.66 74.381zm-288.93-193.927c8.34-4.813 18.333-7.255 29.705-7.255 43.867 0 105.762 35.876 170.037 98.51-29.27 31.468-58.086 67.21-85.689 106.285-47.645 4.37-93.005 11.455-134.883 21.065-28.264-111.193-20.33-194.841 20.83-218.605zM59.13 530.885c0-47.584 68.47-96.3 178.89-127.406 12.617 41.103 29.169 83.952 49.216 127.406-20.043 43.453-36.595 86.302-49.217 127.406-110.418-31.106-178.89-79.822-178.89-127.406zM316.095 931.77c-11.368 0-21.361-2.442-29.7-7.256-41.165-23.763-49.1-107.415-20.84-218.609 41.896 9.619 87.26 16.704 134.892 21.07 27.594 39.062 56.411 74.808 85.69 106.28-64.28 62.638-126.17 98.515-170.042 98.515zM452.01 730.587c20.712 1.01 41.425 1.528 61.65 1.528 20.23 0 40.947-.514 61.66-1.528-20.112 26.85-40.83 51.845-61.655 74.382-20.822-22.528-41.535-47.52-61.655-74.382zm288.912 193.927c-8.34 4.814-18.332 7.256-29.7 7.256-43.868 0-105.758-35.877-170.037-98.515 29.278-31.472 58.095-67.218 85.688-106.28 47.645-4.366 93.01-11.455 134.892-21.074 28.264 111.202 20.326 194.85-20.843 218.613zm48.39-266.223c-12.627-41.126-29.183-83.974-49.226-127.406 20.052-43.467 36.603-86.316 49.22-127.402C899.709 434.59 968.189 483.31 968.189 530.89c-.005 47.571-68.48 96.291-178.877 127.402z" fill="#00BDFF"/><path d="M423.501 530.802a88.44 88.44 0 1 0 176.88 0 88.44 88.44 0 1 0-176.88 0z" fill="#00BDFF"/></svg>